<?xml version="1.0" standalone="no"?>
<!DOCTYPE svg PUBLIC "-//W3C//DTD SVG 20010904//EN"
 "http://www.w3.org/TR/2001/REC-SVG-20010904/DTD/svg10.dtd">
<svg version="1.0" xmlns="http://www.w3.org/2000/svg"
 width="300.000000pt" height="176.000000pt" viewBox="0 0 300.000000 176.000000"
 preserveAspectRatio="xMidYMid meet">
<metadata>
Created by potrace 1.10, written by Peter Selinger 2001-2011
</metadata>
<g transform="translate(0.000000,176.000000) scale(0.100000,-0.100000)"
fill="#000000" stroke="none">
<path d="M2696 838 c-13 -7 -64 -9 -150 -5 -98 5 -152 2 -216 -9 -159 -29
-228 -28 -360 6 -29 8 -40 6 -70 -14 -20 -13 -55 -33 -78 -45 -46 -24 -23 -24
-293 6 -48 5 -87 -9 -138 -48 -19 -15 -42 -19 -115 -19 -106 -1 -200 -19 -247
-47 -33 -20 -174 -53 -225 -53 -15 0 -65 -22 -113 -50 -91 -52 -146 -69 -224
-70 -67 0 -216 -75 -193 -97 3 -3 37 11 76 31 48 24 85 36 113 36 74 0 169 29
236 71 41 26 84 44 120 50 140 23 179 33 216 54 52 30 136 45 244 45 81 0 90
2 145 36 50 30 67 35 100 31 23 -3 93 -10 156 -16 l115 -11 72 44 c64 39 76
43 105 36 126 -33 212 -35 328 -9 31 6 133 12 232 13 127 1 180 5 189 14 19
18 -1 34 -25 20z"/>
</g>
</svg>
